<?xml version="1.0" encoding="UTF-8"?>
<svg version="1.1" xmlns="http://www.w3.org/2000/svg" width="32" height="24">
<path d="M0 0 C10.56 0 21.12 0 32 0 C32 7.92 32 15.84 32 24 C21.44 24 10.88 24 0 24 C0 16.08 0 8.16 0 0 Z " fill="#0B0B17" transform="translate(0,0)"/>
<path d="M0 0 C2.97 0 5.94 0 9 0 C8.25 4.75 8.25 4.75 6 7 C6.99 7.33 7.98 7.66 9 8 C8.67 9.32 8.34 10.64 8 12 C5.03 12 2.06 12 -1 12 C-0.50168276 8.31245243 0.10067643 6.39509338 3 4 C2.01 3.34 1.02 2.68 0 2 C0 1.34 0 0.68 0 0 Z " fill="#3F028F" transform="translate(12,6)"/>
<path d="M0 0 C2.97 0 5.94 0 9 0 C8.75 2.375 8.75 2.375 8 5 C5.9375 6.3125 5.9375 6.3125 4 7 C4 5.68 4 4.36 4 3 C2.68 2.67 1.36 2.34 0 2 C0 1.34 0 0.68 0 0 Z " fill="#7B068C" transform="translate(12,6)"/>
</svg>
